<?xml version="1.0" standalone="no"?>
<!DOCTYPE svg PUBLIC "-//W3C//DTD SVG 20010904//EN"
 "http://www.w3.org/TR/2001/REC-SVG-20010904/DTD/svg10.dtd">
<svg version="1.0" xmlns="http://www.w3.org/2000/svg"
 width="500.000000pt" height="500.000000pt" viewBox="0 0 500.000000 500.000000"
 preserveAspectRatio="xMidYMid meet">
<metadata>
Created by potrace 1.14, written by Peter Selinger 2001-2017
</metadata>
<g transform="translate(0.000000,500.000000) scale(0.100000,-0.100000)"
fill="#000000" stroke="none">
<path d="M1969 3538 c-176 -22 -343 -134 -436 -293 -76 -128 -76 -134 -79
-712 -2 -533 1 -590 42 -693 34 -88 144 -237 165 -224 6 3 9 286 8 687 0 375
2 700 6 722 21 121 123 233 255 280 64 23 65 23 533 24 l428 1 -3 108 -3 107
-430 0 c-237 0 -455 -3 -486 -7z"/>
<path d="M3122 3524 c0 -11 0 -138 -1 -284 -1 -146 2 -287 5 -314 7 -57 32
-103 70 -131 15 -11 33 -25 39 -32 22 -21 129 -34 265 -31 l135 3 3 145 c3
183 -11 257 -73 363 -68 116 -147 190 -259 243 -51 24 -114 47 -139 50 -41 6
-46 4 -45 -12z"/>
<path d="M2056 3053 c-33 -9 -93 -50 -114 -80 -22 -32 -30 -53 -36 -105 l-4
-38 401 0 c250 0 416 4 440 11 46 12 100 58 120 102 23 48 29 104 13 110 -17
7 -794 6 -820 0z"/>
<path d="M2446 2605 c-46 -16 -82 -56 -95 -105 -11 -40 -17 -137 -9 -145 3 -3
22 2 44 11 33 14 98 16 469 18 484 2 473 1 540 78 29 34 55 104 55 148 0 5
-202 9 -482 9 -385 0 -491 -3 -522 -14z"/>
<path d="M1938 2581 l-33 -29 0 -538 0 -538 50 -13 c65 -17 152 -17 157 0 3 9
2 940 -1 1060 -1 17 -13 40 -30 58 -41 41 -98 41 -143 0z"/>
<path d="M2532 2190 l-104 -5 -33 -37 c-39 -42 -52 -82 -60 -190 -6 -74 -1
-90 21 -69 30 28 98 34 409 36 292 1 324 3 360 21 54 25 70 40 114 104 37 54
48 76 56 119 3 18 -1 21 -33 22 -125 4 -644 3 -730 -1z"/>
<path d="M3425 2172 c-3 -3 -5 -40 -5 -82 0 -208 -110 -354 -305 -405 -48 -12
-127 -15 -412 -15 -194 0 -353 -3 -354 -7 0 -5 -2 -52 -3 -106 -1 -80 1 -100
14 -106 8 -4 175 -6 370 -5 391 2 435 7 551 64 118 57 166 96 242 199 82 111
117 222 117 375 l0 93 -105 0 c-58 0 -107 -3 -110 -5z"/>
</g>
</svg>
